<svg xmlns="http://www.w3.org/2000/svg" viewBox="0 0 100 100">
  <path fill="#000" d="M 49.812 1.278 C 49.813 1.278 49.808 1.297 49.797 1.333 C 49.794 1.296 49.799 1.278 49.812 1.278 Z M 49.797 1.333 C 49.895 2.512 58.2 22.133 58.437 22.39 C 66.431 23.808 69.667 27.548 74.634 33.463 L 89.257 30.622 L 80.198 43.056 C 80.827 44.77 81.313 46.551 81.643 48.386 L 100.246 54.438 L 81.646 59.755 C 81.317 61.591 80.83 63.374 80.203 65.088 L 98.114 81.827 L 74.886 74.755 C 74.409 73.967 73.9 73.21 73.354 72.487 C 72.72 71.647 72.029 70.858 71.287 70.123 C 74.653 65.666 76.648 60.111 76.648 54.078 C 76.648 39.348 64.765 27.466 50.036 27.466 C 35.306 27.466 23.424 39.348 23.424 54.078 C 23.424 60.111 25.419 65.667 28.785 70.124 C 28.044 70.859 27.352 71.648 26.718 72.487 C 26.173 73.21 25.664 73.967 25.187 74.755 L 1.958 81.828 L 19.869 65.089 C 19.241 63.374 18.755 61.591 18.426 59.755 L -0.246 53.309 L 18.429 48.386 C 18.759 46.551 19.245 44.77 19.873 43.056 L 9.757 29.714 L 25.437 33.463 C 30.448 27.495 34.77 23.444 42.854 22.339 C 43.049 22.15 49.444 2.513 49.797 1.333 Z" style=""></path>
  <path fill="#000" d="M 68.21 69.034 C 68.21 78.941 60.149 87.002 50.242 87.002 C 40.335 87.002 32.274 78.941 32.274 69.034 C 32.274 63.898 35.194 59.417 38.025 55.083 C 39.818 52.335 41.701 49.572 42.779 46.432 C 43.755 43.586 44.07 40.429 43.055 36.692 C 48.445 36.692 55.318 40.021 59.772 45.177 C 62.346 48.17 64.375 51.591 65.766 55.284 C 67.388 59.546 68.21 64.171 68.21 69.034 Z M 55.631 74.426 C 55.631 71.777 54.415 68.586 52.375 65.89 C 51.154 64.277 49.765 63.038 48.496 62.378 C 48.445 64.317 47.527 65.794 46.799 67.374 C 45.842 69.451 44.852 71.601 44.852 74.425 C 44.852 76.922 45.451 78.881 46.612 80.117 C 47.771 81.352 49.226 81.612 50.242 81.612 C 51.258 81.612 52.713 81.352 53.873 80.117 C 55.024 78.89 55.633 76.922 55.631 74.426 Z" style="stroke-width: 1;"></path>
</svg>